<mxfile host="app.diagrams.net" modified="2021-08-31T17:49:37.129Z" agent="5.0 (Windows NT 10.0; Win64; x64) AppleWebKit/537.36 (KHTML, like Gecko) Chrome/86.0.4240.183 Safari/537.36" etag="XmI4wKhf7BxSvGMpA5bH" version="15.0.3" type="github">
  <diagram id="9VUJ2_KPM8lVsrt1l0CU" name="Page-1">
    <mxGraphModel dx="1422" dy="737" grid="1" gridSize="10" guides="1" tooltips="1" connect="1" arrows="1" fold="1" page="1" pageScale="1" pageWidth="827" pageHeight="1169" math="0" shadow="0">
      <root>
        <mxCell id="0" />
        <mxCell id="1" parent="0" />
        <mxCell id="q8WYI548I7uT7oId0jd4-1" value="C_Smartphone" style="swimlane;fontStyle=1;align=center;verticalAlign=top;childLayout=stackLayout;horizontal=1;startSize=26;horizontalStack=0;resizeParent=1;resizeParentMax=0;resizeLast=0;collapsible=1;marginBottom=0;fillColor=#e51400;strokeColor=#B20000;fontColor=#ffffff;" vertex="1" parent="1">
          <mxGeometry x="520" y="120" width="290" height="294" as="geometry" />
        </mxCell>
        <mxCell id="q8WYI548I7uT7oId0jd4-50" value="- _frontCameraMpx:unsigned short" style="text;strokeColor=#b85450;fillColor=#f8cecc;align=left;verticalAlign=top;spacingLeft=4;spacingRight=4;overflow=hidden;rotatable=0;points=[[0,0.5],[1,0.5]];portConstraint=eastwest;gradientColor=#ea6b66;" vertex="1" parent="q8WYI548I7uT7oId0jd4-1">
          <mxGeometry y="26" width="290" height="26" as="geometry" />
        </mxCell>
        <mxCell id="q8WYI548I7uT7oId0jd4-70" value="- _display:usigned short" style="text;strokeColor=#b85450;fillColor=#f8cecc;align=left;verticalAlign=top;spacingLeft=4;spacingRight=4;overflow=hidden;rotatable=0;points=[[0,0.5],[1,0.5]];portConstraint=eastwest;gradientColor=#ea6b66;" vertex="1" parent="q8WYI548I7uT7oId0jd4-1">
          <mxGeometry y="52" width="290" height="26" as="geometry" />
        </mxCell>
        <mxCell id="q8WYI548I7uT7oId0jd4-3" value="" style="line;strokeWidth=1;fillColor=none;align=left;verticalAlign=middle;spacingTop=-1;spacingLeft=3;spacingRight=3;rotatable=0;labelPosition=right;points=[];portConstraint=eastwest;" vertex="1" parent="q8WYI548I7uT7oId0jd4-1">
          <mxGeometry y="78" width="290" height="8" as="geometry" />
        </mxCell>
        <mxCell id="q8WYI548I7uT7oId0jd4-55" value="+ getFrontCamera():unsigned short" style="text;strokeColor=#82b366;fillColor=#d5e8d4;align=left;verticalAlign=top;spacingLeft=4;spacingRight=4;overflow=hidden;rotatable=0;points=[[0,0.5],[1,0.5]];portConstraint=eastwest;gradientColor=#97d077;" vertex="1" parent="q8WYI548I7uT7oId0jd4-1">
          <mxGeometry y="86" width="290" height="26" as="geometry" />
        </mxCell>
        <mxCell id="q8WYI548I7uT7oId0jd4-71" value="+ getDisplay():unsigned short" style="text;strokeColor=#82b366;fillColor=#d5e8d4;align=left;verticalAlign=top;spacingLeft=4;spacingRight=4;overflow=hidden;rotatable=0;points=[[0,0.5],[1,0.5]];portConstraint=eastwest;gradientColor=#97d077;" vertex="1" parent="q8WYI548I7uT7oId0jd4-1">
          <mxGeometry y="112" width="290" height="26" as="geometry" />
        </mxCell>
        <mxCell id="q8WYI548I7uT7oId0jd4-72" value="+ setFrontCamera(unsigned short):void" style="text;strokeColor=#005700;fillColor=#008a00;align=left;verticalAlign=top;spacingLeft=4;spacingRight=4;overflow=hidden;rotatable=0;points=[[0,0.5],[1,0.5]];portConstraint=eastwest;fontColor=#ffffff;" vertex="1" parent="q8WYI548I7uT7oId0jd4-1">
          <mxGeometry y="138" width="290" height="26" as="geometry" />
        </mxCell>
        <mxCell id="q8WYI548I7uT7oId0jd4-56" value="+ setDisplay(unsigned short):void" style="text;strokeColor=#005700;fillColor=#008a00;align=left;verticalAlign=top;spacingLeft=4;spacingRight=4;overflow=hidden;rotatable=0;points=[[0,0.5],[1,0.5]];portConstraint=eastwest;fontColor=#ffffff;" vertex="1" parent="q8WYI548I7uT7oId0jd4-1">
          <mxGeometry y="164" width="290" height="26" as="geometry" />
        </mxCell>
        <mxCell id="q8WYI548I7uT7oId0jd4-4" value="+ screenshot():void" style="text;strokeColor=#996185;fillColor=#e6d0de;align=left;verticalAlign=top;spacingLeft=4;spacingRight=4;overflow=hidden;rotatable=0;points=[[0,0.5],[1,0.5]];portConstraint=eastwest;gradientColor=#d5739d;" vertex="1" parent="q8WYI548I7uT7oId0jd4-1">
          <mxGeometry y="190" width="290" height="26" as="geometry" />
        </mxCell>
        <mxCell id="q8WYI548I7uT7oId0jd4-17" value="+ AddMemory():float" style="text;strokeColor=#996185;fillColor=#e6d0de;align=left;verticalAlign=top;spacingLeft=4;spacingRight=4;overflow=hidden;rotatable=0;points=[[0,0.5],[1,0.5]];portConstraint=eastwest;gradientColor=#d5739d;" vertex="1" parent="q8WYI548I7uT7oId0jd4-1">
          <mxGeometry y="216" width="290" height="26" as="geometry" />
        </mxCell>
        <mxCell id="q8WYI548I7uT7oId0jd4-49" value="+ ChangeBattery(unsigned short):void" style="text;strokeColor=#996185;fillColor=#e6d0de;align=left;verticalAlign=top;spacingLeft=4;spacingRight=4;overflow=hidden;rotatable=0;points=[[0,0.5],[1,0.5]];portConstraint=eastwest;gradientColor=#d5739d;" vertex="1" parent="q8WYI548I7uT7oId0jd4-1">
          <mxGeometry y="242" width="290" height="26" as="geometry" />
        </mxCell>
        <mxCell id="q8WYI548I7uT7oId0jd4-51" value="+ TakePhotoFrontCamera():void" style="text;strokeColor=#996185;fillColor=#e6d0de;align=left;verticalAlign=top;spacingLeft=4;spacingRight=4;overflow=hidden;rotatable=0;points=[[0,0.5],[1,0.5]];portConstraint=eastwest;gradientColor=#d5739d;" vertex="1" parent="q8WYI548I7uT7oId0jd4-1">
          <mxGeometry y="268" width="290" height="26" as="geometry" />
        </mxCell>
        <mxCell id="q8WYI548I7uT7oId0jd4-5" value="C_Phone" style="swimlane;fontStyle=1;align=center;verticalAlign=top;childLayout=stackLayout;horizontal=1;startSize=26;horizontalStack=0;resizeParent=1;resizeParentMax=0;resizeLast=0;collapsible=1;marginBottom=0;fillColor=#e51400;strokeColor=#B20000;fontColor=#ffffff;" vertex="1" parent="1">
          <mxGeometry x="40" y="200" width="290" height="528" as="geometry" />
        </mxCell>
        <mxCell id="q8WYI548I7uT7oId0jd4-6" value="-  cpu:C_Cpu" style="text;strokeColor=#b85450;fillColor=#f8cecc;align=left;verticalAlign=top;spacingLeft=4;spacingRight=4;overflow=hidden;rotatable=0;points=[[0,0.5],[1,0.5]];portConstraint=eastwest;gradientColor=#ea6b66;" vertex="1" parent="q8WYI548I7uT7oId0jd4-5">
          <mxGeometry y="26" width="290" height="26" as="geometry" />
        </mxCell>
        <mxCell id="q8WYI548I7uT7oId0jd4-10" value="- _brand:C_Brand" style="text;strokeColor=#b85450;fillColor=#f8cecc;align=left;verticalAlign=top;spacingLeft=4;spacingRight=4;overflow=hidden;rotatable=0;points=[[0,0.5],[1,0.5]];portConstraint=eastwest;gradientColor=#ea6b66;" vertex="1" parent="q8WYI548I7uT7oId0jd4-5">
          <mxGeometry y="52" width="290" height="26" as="geometry" />
        </mxCell>
        <mxCell id="q8WYI548I7uT7oId0jd4-11" value="-  _number:string" style="text;strokeColor=#b85450;fillColor=#f8cecc;align=left;verticalAlign=top;spacingLeft=4;spacingRight=4;overflow=hidden;rotatable=0;points=[[0,0.5],[1,0.5]];portConstraint=eastwest;gradientColor=#ea6b66;" vertex="1" parent="q8WYI548I7uT7oId0jd4-5">
          <mxGeometry y="78" width="290" height="26" as="geometry" />
        </mxCell>
        <mxCell id="q8WYI548I7uT7oId0jd4-12" value="-  _keyboard:vector (C_Button)" style="text;strokeColor=#b85450;fillColor=#f8cecc;align=left;verticalAlign=top;spacingLeft=4;spacingRight=4;overflow=hidden;rotatable=0;points=[[0,0.5],[1,0.5]];portConstraint=eastwest;gradientColor=#ea6b66;" vertex="1" parent="q8WYI548I7uT7oId0jd4-5">
          <mxGeometry y="104" width="290" height="26" as="geometry" />
        </mxCell>
        <mxCell id="q8WYI548I7uT7oId0jd4-13" value="-  _battery:unsigned short" style="text;strokeColor=#b85450;fillColor=#f8cecc;align=left;verticalAlign=top;spacingLeft=4;spacingRight=4;overflow=hidden;rotatable=0;points=[[0,0.5],[1,0.5]];portConstraint=eastwest;gradientColor=#ea6b66;" vertex="1" parent="q8WYI548I7uT7oId0jd4-5">
          <mxGeometry y="130" width="290" height="26" as="geometry" />
        </mxCell>
        <mxCell id="q8WYI548I7uT7oId0jd4-20" value="- _cameraMpx:unsigned short" style="text;strokeColor=#b85450;fillColor=#f8cecc;align=left;verticalAlign=top;spacingLeft=4;spacingRight=4;overflow=hidden;rotatable=0;points=[[0,0.5],[1,0.5]];portConstraint=eastwest;gradientColor=#ea6b66;" vertex="1" parent="q8WYI548I7uT7oId0jd4-5">
          <mxGeometry y="156" width="290" height="26" as="geometry" />
        </mxCell>
        <mxCell id="q8WYI548I7uT7oId0jd4-69" value="-  _ramMemory:float" style="text;strokeColor=#b85450;fillColor=#f8cecc;align=left;verticalAlign=top;spacingLeft=4;spacingRight=4;overflow=hidden;rotatable=0;points=[[0,0.5],[1,0.5]];portConstraint=eastwest;gradientColor=#ea6b66;" vertex="1" parent="q8WYI548I7uT7oId0jd4-5">
          <mxGeometry y="182" width="290" height="26" as="geometry" />
        </mxCell>
        <mxCell id="q8WYI548I7uT7oId0jd4-18" value="-  _romMemory:float" style="text;strokeColor=#b85450;fillColor=#f8cecc;align=left;verticalAlign=top;spacingLeft=4;spacingRight=4;overflow=hidden;rotatable=0;points=[[0,0.5],[1,0.5]];portConstraint=eastwest;gradientColor=#ea6b66;" vertex="1" parent="q8WYI548I7uT7oId0jd4-5">
          <mxGeometry y="208" width="290" height="26" as="geometry" />
        </mxCell>
        <mxCell id="q8WYI548I7uT7oId0jd4-21" value="- _weight:unsigned short" style="text;strokeColor=#b85450;fillColor=#f8cecc;align=left;verticalAlign=top;spacingLeft=4;spacingRight=4;overflow=hidden;rotatable=0;points=[[0,0.5],[1,0.5]];portConstraint=eastwest;gradientColor=#ea6b66;" vertex="1" parent="q8WYI548I7uT7oId0jd4-5">
          <mxGeometry y="234" width="290" height="26" as="geometry" />
        </mxCell>
        <mxCell id="q8WYI548I7uT7oId0jd4-7" value="" style="line;strokeWidth=1;fillColor=none;align=left;verticalAlign=middle;spacingTop=-1;spacingLeft=3;spacingRight=3;rotatable=0;labelPosition=right;points=[];portConstraint=eastwest;" vertex="1" parent="q8WYI548I7uT7oId0jd4-5">
          <mxGeometry y="260" width="290" height="8" as="geometry" />
        </mxCell>
        <mxCell id="q8WYI548I7uT7oId0jd4-44" value="+ getNumber():string" style="text;strokeColor=#82b366;fillColor=#d5e8d4;align=left;verticalAlign=top;spacingLeft=4;spacingRight=4;overflow=hidden;rotatable=0;points=[[0,0.5],[1,0.5]];portConstraint=eastwest;gradientColor=#97d077;" vertex="1" parent="q8WYI548I7uT7oId0jd4-5">
          <mxGeometry y="268" width="290" height="26" as="geometry" />
        </mxCell>
        <mxCell id="q8WYI548I7uT7oId0jd4-45" value="+ getWeight():unsigned short" style="text;strokeColor=#82b366;fillColor=#d5e8d4;align=left;verticalAlign=top;spacingLeft=4;spacingRight=4;overflow=hidden;rotatable=0;points=[[0,0.5],[1,0.5]];portConstraint=eastwest;gradientColor=#97d077;" vertex="1" parent="q8WYI548I7uT7oId0jd4-5">
          <mxGeometry y="294" width="290" height="26" as="geometry" />
        </mxCell>
        <mxCell id="q8WYI548I7uT7oId0jd4-43" value="+ getRomMemory():float" style="text;strokeColor=#82b366;fillColor=#d5e8d4;align=left;verticalAlign=top;spacingLeft=4;spacingRight=4;overflow=hidden;rotatable=0;points=[[0,0.5],[1,0.5]];portConstraint=eastwest;gradientColor=#97d077;" vertex="1" parent="q8WYI548I7uT7oId0jd4-5">
          <mxGeometry y="320" width="290" height="26" as="geometry" />
        </mxCell>
        <mxCell id="q8WYI548I7uT7oId0jd4-46" value="+ setNumber(string):void" style="text;strokeColor=#005700;fillColor=#008a00;align=left;verticalAlign=top;spacingLeft=4;spacingRight=4;overflow=hidden;rotatable=0;points=[[0,0.5],[1,0.5]];portConstraint=eastwest;fontColor=#ffffff;" vertex="1" parent="q8WYI548I7uT7oId0jd4-5">
          <mxGeometry y="346" width="290" height="26" as="geometry" />
        </mxCell>
        <mxCell id="q8WYI548I7uT7oId0jd4-47" value="+ setWeight(unsigned short):void" style="text;strokeColor=#005700;fillColor=#008a00;align=left;verticalAlign=top;spacingLeft=4;spacingRight=4;overflow=hidden;rotatable=0;points=[[0,0.5],[1,0.5]];portConstraint=eastwest;fontColor=#ffffff;" vertex="1" parent="q8WYI548I7uT7oId0jd4-5">
          <mxGeometry y="372" width="290" height="26" as="geometry" />
        </mxCell>
        <mxCell id="q8WYI548I7uT7oId0jd4-48" value="+ setMemory(float):void" style="text;strokeColor=#005700;fillColor=#008a00;align=left;verticalAlign=top;spacingLeft=4;spacingRight=4;overflow=hidden;rotatable=0;points=[[0,0.5],[1,0.5]];portConstraint=eastwest;fontColor=#ffffff;" vertex="1" parent="q8WYI548I7uT7oId0jd4-5">
          <mxGeometry y="398" width="290" height="26" as="geometry" />
        </mxCell>
        <mxCell id="q8WYI548I7uT7oId0jd4-8" value="+ Call(string):void" style="text;strokeColor=#996185;fillColor=#e6d0de;align=left;verticalAlign=top;spacingLeft=4;spacingRight=4;overflow=hidden;rotatable=0;points=[[0,0.5],[1,0.5]];portConstraint=eastwest;gradientColor=#d5739d;" vertex="1" parent="q8WYI548I7uT7oId0jd4-5">
          <mxGeometry y="424" width="290" height="26" as="geometry" />
        </mxCell>
        <mxCell id="q8WYI548I7uT7oId0jd4-19" value="+ TakePhoto():void" style="text;strokeColor=#996185;fillColor=#e6d0de;align=left;verticalAlign=top;spacingLeft=4;spacingRight=4;overflow=hidden;rotatable=0;points=[[0,0.5],[1,0.5]];portConstraint=eastwest;gradientColor=#d5739d;" vertex="1" parent="q8WYI548I7uT7oId0jd4-5">
          <mxGeometry y="450" width="290" height="26" as="geometry" />
        </mxCell>
        <mxCell id="q8WYI548I7uT7oId0jd4-15" value="+ communication(string):void" style="text;strokeColor=#996185;fillColor=#e6d0de;align=left;verticalAlign=top;spacingLeft=4;spacingRight=4;overflow=hidden;rotatable=0;points=[[0,0.5],[1,0.5]];portConstraint=eastwest;gradientColor=#d5739d;" vertex="1" parent="q8WYI548I7uT7oId0jd4-5">
          <mxGeometry y="476" width="290" height="26" as="geometry" />
        </mxCell>
        <mxCell id="q8WYI548I7uT7oId0jd4-16" value="+  operator &lt;&lt;(std ostream&amp;, const C_Smartphone)" style="text;strokeColor=#996185;fillColor=#e6d0de;align=left;verticalAlign=top;spacingLeft=4;spacingRight=4;overflow=hidden;rotatable=0;points=[[0,0.5],[1,0.5]];portConstraint=eastwest;gradientColor=#d5739d;" vertex="1" parent="q8WYI548I7uT7oId0jd4-5">
          <mxGeometry y="502" width="290" height="26" as="geometry" />
        </mxCell>
        <mxCell id="q8WYI548I7uT7oId0jd4-9" value="Extends" style="endArrow=block;endSize=16;endFill=0;html=1;" edge="1" parent="1">
          <mxGeometry x="-0.7333" y="9" width="160" relative="1" as="geometry">
            <mxPoint x="330" y="270" as="sourcePoint" />
            <mxPoint x="520" y="270" as="targetPoint" />
            <mxPoint as="offset" />
          </mxGeometry>
        </mxCell>
        <mxCell id="q8WYI548I7uT7oId0jd4-22" value="C_Button" style="swimlane;fontStyle=0;childLayout=stackLayout;horizontal=1;startSize=26;fillColor=#d0cee2;horizontalStack=0;resizeParent=1;resizeParentMax=0;resizeLast=0;collapsible=1;marginBottom=0;strokeColor=#56517e;" vertex="1" parent="1">
          <mxGeometry x="540" y="624" width="100" height="52" as="geometry" />
        </mxCell>
        <mxCell id="q8WYI548I7uT7oId0jd4-23" value="- _button:char" style="text;strokeColor=#001DBC;fillColor=#0050ef;align=left;verticalAlign=top;spacingLeft=4;spacingRight=4;overflow=hidden;rotatable=0;points=[[0,0.5],[1,0.5]];portConstraint=eastwest;fontColor=#ffffff;" vertex="1" parent="q8WYI548I7uT7oId0jd4-22">
          <mxGeometry y="26" width="100" height="26" as="geometry" />
        </mxCell>
        <mxCell id="q8WYI548I7uT7oId0jd4-26" value="" style="endArrow=none;html=1;edgeStyle=orthogonalEdgeStyle;entryX=0;entryY=0.5;entryDx=0;entryDy=0;" edge="1" parent="1" target="q8WYI548I7uT7oId0jd4-22">
          <mxGeometry relative="1" as="geometry">
            <mxPoint x="330" y="650" as="sourcePoint" />
            <mxPoint x="460" y="649.5" as="targetPoint" />
          </mxGeometry>
        </mxCell>
        <mxCell id="q8WYI548I7uT7oId0jd4-27" value="parent" style="edgeLabel;resizable=0;html=1;align=left;verticalAlign=bottom;" connectable="0" vertex="1" parent="q8WYI548I7uT7oId0jd4-26">
          <mxGeometry x="-1" relative="1" as="geometry">
            <mxPoint x="10" as="offset" />
          </mxGeometry>
        </mxCell>
        <mxCell id="q8WYI548I7uT7oId0jd4-28" value="child" style="edgeLabel;resizable=0;html=1;align=right;verticalAlign=bottom;" connectable="0" vertex="1" parent="q8WYI548I7uT7oId0jd4-26">
          <mxGeometry x="1" relative="1" as="geometry">
            <mxPoint x="-10" as="offset" />
          </mxGeometry>
        </mxCell>
        <mxCell id="q8WYI548I7uT7oId0jd4-33" value="C-Cpu" style="swimlane;fontStyle=1;align=center;verticalAlign=top;childLayout=stackLayout;horizontal=1;startSize=26;horizontalStack=0;resizeParent=1;resizeParentMax=0;resizeLast=0;collapsible=1;marginBottom=0;fillColor=#d0cee2;strokeColor=#56517e;" vertex="1" parent="1">
          <mxGeometry x="430" y="490" width="120" height="112" as="geometry" />
        </mxCell>
        <mxCell id="q8WYI548I7uT7oId0jd4-63" value="- _brand:string" style="text;strokeColor=#3700CC;fillColor=#6a00ff;align=left;verticalAlign=top;spacingLeft=4;spacingRight=4;overflow=hidden;rotatable=0;points=[[0,0.5],[1,0.5]];portConstraint=eastwest;fontColor=#ffffff;" vertex="1" parent="q8WYI548I7uT7oId0jd4-33">
          <mxGeometry y="26" width="120" height="26" as="geometry" />
        </mxCell>
        <mxCell id="q8WYI548I7uT7oId0jd4-34" value="- _numberCores" style="text;strokeColor=#3700CC;fillColor=#6a00ff;align=left;verticalAlign=top;spacingLeft=4;spacingRight=4;overflow=hidden;rotatable=0;points=[[0,0.5],[1,0.5]];portConstraint=eastwest;fontColor=#ffffff;" vertex="1" parent="q8WYI548I7uT7oId0jd4-33">
          <mxGeometry y="52" width="120" height="26" as="geometry" />
        </mxCell>
        <mxCell id="q8WYI548I7uT7oId0jd4-35" value="" style="line;strokeWidth=1;fillColor=none;align=left;verticalAlign=middle;spacingTop=-1;spacingLeft=3;spacingRight=3;rotatable=0;labelPosition=right;points=[];portConstraint=eastwest;" vertex="1" parent="q8WYI548I7uT7oId0jd4-33">
          <mxGeometry y="78" width="120" height="8" as="geometry" />
        </mxCell>
        <mxCell id="q8WYI548I7uT7oId0jd4-36" value="+ Burn():void" style="text;strokeColor=#001DBC;fillColor=#0050ef;align=left;verticalAlign=top;spacingLeft=4;spacingRight=4;overflow=hidden;rotatable=0;points=[[0,0.5],[1,0.5]];portConstraint=eastwest;fontColor=#ffffff;" vertex="1" parent="q8WYI548I7uT7oId0jd4-33">
          <mxGeometry y="86" width="120" height="26" as="geometry" />
        </mxCell>
        <mxCell id="q8WYI548I7uT7oId0jd4-42" value="" style="endArrow=diamondThin;endFill=1;endSize=24;html=1;exitX=-0.006;exitY=0.923;exitDx=0;exitDy=0;entryX=1;entryY=0.5;entryDx=0;entryDy=0;exitPerimeter=0;" edge="1" parent="1" source="q8WYI548I7uT7oId0jd4-34" target="q8WYI548I7uT7oId0jd4-48">
          <mxGeometry width="160" relative="1" as="geometry">
            <mxPoint x="230" y="483" as="sourcePoint" />
            <mxPoint x="429" y="536" as="targetPoint" />
          </mxGeometry>
        </mxCell>
        <mxCell id="q8WYI548I7uT7oId0jd4-58" value="C_Brand" style="swimlane;fontStyle=0;childLayout=stackLayout;horizontal=1;startSize=26;fillColor=#d0cee2;horizontalStack=0;resizeParent=1;resizeParentMax=0;resizeLast=0;collapsible=1;marginBottom=0;strokeColor=#56517e;" vertex="1" parent="1">
          <mxGeometry x="630" y="450" width="120" height="78" as="geometry" />
        </mxCell>
        <mxCell id="q8WYI548I7uT7oId0jd4-59" value="+ nameBrand:string" style="text;strokeColor=#3700CC;fillColor=#6a00ff;align=left;verticalAlign=top;spacingLeft=4;spacingRight=4;overflow=hidden;rotatable=0;points=[[0,0.5],[1,0.5]];portConstraint=eastwest;fontColor=#ffffff;" vertex="1" parent="q8WYI548I7uT7oId0jd4-58">
          <mxGeometry y="26" width="120" height="26" as="geometry" />
        </mxCell>
        <mxCell id="q8WYI548I7uT7oId0jd4-60" value="+ typeBrand:string" style="text;strokeColor=#3700CC;fillColor=#6a00ff;align=left;verticalAlign=top;spacingLeft=4;spacingRight=4;overflow=hidden;rotatable=0;points=[[0,0.5],[1,0.5]];portConstraint=eastwest;fontColor=#ffffff;" vertex="1" parent="q8WYI548I7uT7oId0jd4-58">
          <mxGeometry y="52" width="120" height="26" as="geometry" />
        </mxCell>
        <mxCell id="q8WYI548I7uT7oId0jd4-62" value="" style="endArrow=diamondThin;endFill=0;endSize=24;html=1;entryX=1;entryY=0.192;entryDx=0;entryDy=0;entryPerimeter=0;" edge="1" parent="1" target="q8WYI548I7uT7oId0jd4-45">
          <mxGeometry width="160" relative="1" as="geometry">
            <mxPoint x="628" y="473" as="sourcePoint" />
            <mxPoint x="790" y="476" as="targetPoint" />
            <Array as="points">
              <mxPoint x="430" y="473" />
            </Array>
          </mxGeometry>
        </mxCell>
      </root>
    </mxGraphModel>
  </diagram>
</mxfile>
